<svg xmlns="http://www.w3.org/2000/svg" width="610" height="610" viewBox="-50 -30 610 610"><g transform="translate(-853.1123,-22.926758)" fill-rule="evenodd"><path d="m 838.06036,429.55785 c -14.2055,-29.60803 -22.3395,-56.03756 -27.32743,-88.79413 -2.79529,-18.35704 -3.4869,-53.68503 -1.42985,-73.03646 7.01444,-65.98698 33.29463,-124.25863 78.21185,-173.420784 41.94856,-45.912927 100.35196,-78.560888 162.66187,-90.929275 17.4933,-3.472361 50.4305,-6.7311477 49.7374,-4.920988 -0.1937,0.5058333 -12.7887,22.690368 -27.9889,49.298948 l -27.6369,48.379234 -9.2122,3.384231 c -14.0503,5.161464 -30.4703,13.541774 -43.26429,22.080704 -36.50443,24.36376 -64.13446,58.08473 -79.99807,97.6333 -14.8991,37.14398 -19.12198,79.36948 -11.73973,117.38799 l 1.69836,8.74656 -27.22784,47.87589 c -14.97532,26.33173 -27.77566,48.47373 -28.44521,49.20444 -1.02995,1.12403 -2.26757,-0.86032 -8.03906,-12.88966 z"/><path d="m 1296.5965,530.19571 c 0.2621,-0.88617 8.1843,-27.00817 17.6048,-58.04892 l 17.1284,-56.43772 -11.6696,-22.89403 -11.6694,-22.89403 3.334,-11.81657 c 6.5929,-23.36854 8.3667,-36.25748 8.3413,-60.61315 -0.021,-19.90557 -1.3892,-31.95198 -5.5828,-49.145 -17.1825,-70.44499 -69.4309,-127.39943 -138.3803,-150.844017 l -9.8775,-3.358659 -24.3801,-47.306262 c -13.409,-26.018438 -24.5384,-47.7550386 -24.7322,-48.3035567 -0.7182,-2.0342874 32.4849,1.37325962 52.1399,5.3510029 45.1637,9.1400668 89.6963,29.8692298 125.6264,58.4768888 56.6281,45.087503 94.0652,106.046113 108.5614,176.769233 4.1981,20.48145 5.0629,30.51315 5.0714,58.82071 0.01,28.96566 -0.8007,38.00501 -5.447,60.85123 -8.274,40.68241 -27.1682,83.45029 -51.3467,116.22568 -12.9327,17.53122 -33.1478,39.27912 -48.7253,52.4203 -5.5889,4.71472 -6.7342,5.23934 -5.9967,2.74687 z"/><path d="m 963.19928,561.19719 c -25.4941,-14.10796 -46.50098,-30.0933 -68.14957,-51.85892 -15.78221,-15.86752 -26.82229,-29.38011 -38.39911,-46.99886 -5.98642,-9.11076 -6.98565,-11.14048 -5.80848,-11.79885 0.78196,-0.43736 18.8864,-9.30111 40.23209,-19.69723 30.85435,-15.02717 38.96177,-18.63163 39.54895,-17.58301 4.69021,8.37605 23.19269,30.57375 32.64354,39.16291 l 5.79664,5.26813 2.36316,48.79658 c 1.29974,26.83812 2.58759,51.38602 2.86189,54.55088 0.2743,3.16488 0.16673,5.75432 -0.23905,5.75432 -0.40577,0 -5.28829,-2.51818 -10.85006,-5.59595 z"/><path d="m 1081.5981,597.4373 c -16.6651,-1.35712 -42.7029,-6.46611 -60.8009,-11.93005 -12.5644,-3.79324 -29.47931,-10.27012 -29.47931,-11.28787 0,-1.42497 88.90921,-65.81565 90.74091,-65.71716 33.5057,1.80179 47.496,1.1905 68.3904,-2.98825 31.8823,-6.37627 65.7901,-22.40182 91.2784,-43.1402 4.2166,-3.43077 7.773,-6.09496 7.9032,-5.92043 0.1304,0.17454 9.4673,18.30845 20.7487,40.29759 l 20.5116,39.98026 -2.16,1.69047 c -4.8852,3.82319 -21.1198,14.59073 -28.7387,19.06079 -36.8995,21.64936 -79.4011,35.35849 -122.988,39.67038 -8.8199,0.8725 -45.8507,1.06265 -55.4063,0.28447 z"/><path d="m 984.32809,556.51333 c -1.3513,-18.22213 -4.46879,-87.34052 -3.96221,-87.84708 0.30637,-0.30638 5.22999,2.45312 10.94138,6.13224 14.76114,9.5087 14.64964,9.44658 15.42744,8.59134 1.4647,-1.61042 81.0453,-158.84158 80.6141,-159.27284 -0.2484,-0.24843 -50.2207,23.83072 -111.0495,53.50924 -60.82877,29.67851 -110.74159,53.81709 -110.91739,53.6413 -0.69943,-0.69944 241.36439,-423.4659229 242.46429,-423.4659229 1.3989,0 88.6307,169.0206629 87.713,169.9529229 -1.5583,1.58299 -62.2891,30.07918 -62.8263,29.47946 -0.3319,-0.37052 -10.8557,-20.68099 -23.3862,-45.13437 -12.5303,-24.45338 -23.0953,-44.12221 -23.4775,-43.7085 -1.9561,2.1169 -101.09742,173.78033 -100.48235,173.98535 0.39682,0.13228 47.08505,-22.49783 103.75175,-50.28912 56.6665,-27.7913 103.157,-50.40885 103.3119,-50.26124 0.1551,0.1476 -17.3398,35.50995 -38.8775,78.58297 -21.5377,43.07305 -39.1372,78.62614 -39.11,79.00688 0.027,0.38076 10.6527,9.13547 23.6123,19.45493 21.7073,17.28489 23.7145,18.66896 25.4856,17.57322 1.0575,-0.65419 11.3449,-8.60565 22.861,-17.66992 l 20.9384,-16.48051 -7.7435,-14.89541 c -4.2589,-8.19247 -13.5571,-26.19675 -20.6626,-40.00951 l -12.919,-25.11412 19.2085,-39.06838 c 10.5647,-21.48761 19.5504,-39.06401 19.9681,-39.05869 0.4178,0.006 26.2993,50.10368 57.5145,111.32965 l 56.7549,111.31995 -14.3924,47.41267 c -7.9158,26.07696 -14.7881,47.28078 -15.2717,47.11959 -0.4836,-0.1612 -14.9918,-27.70137 -32.2405,-61.2004 -17.2487,-33.49902 -31.6621,-60.90863 -32.0298,-60.91024 -0.3676,-0.002 -13.4112,9.99677 -28.9856,22.21864 -15.5745,12.22186 -28.8196,22.612 -29.4338,23.08921 -0.7811,0.60702 -11.4769,-6.6208 -35.607,-24.06192 -18.9698,-13.71127 -34.8238,-24.92958 -35.2312,-24.92958 -0.4074,0 -13.667,25.36244 -29.4657,56.36097 l -28.725,56.36097 6.4458,2.00006 c 3.5453,1.10004 9.536,2.72855 13.3127,3.61893 3.7768,0.89036 6.8669,1.88495 6.8669,2.21019 0,0.66888 -76.67531,56.86339 -78.59103,57.59851 -0.95012,0.3646 -1.36951,-1.30194 -1.80478,-7.17144 z"/></g></svg>